<?xml version="1.0" encoding="UTF-8"?>
<svg width="95px" height="95px" viewBox="0 0 350 350" fill="red">
    <defs>
      <style>
        {".logo_svg__cls-1{fill:#fff;stroke:#fff;stroke-miterlimit:10}"}
      </style>
    </defs>
    <g id="logo_svg__Layer_2" data-name="Layer 2">
      <g id="logo_svg__svg29">
        <g id="logo_svg__Layer1000">
          <path
            id="logo_svg__path2"
            className="logo_svg__cls-1"
            d="M291.57 259.61c-.28.78 0 .59-1.14.86.5-.75.15-.59 1.14-.86zm-229 32.05c-1.9-.44-7.6-6.45-9-8.13-.84-1-5.26-4.52-3.88-5.9.19-.19.29-.36.59-.44.7-.2 1.77 1 2.25 1.4 2 1.74 10.3 10.17 10.85 12.24a.66.66 0 01-.17.64.63.63 0 01-.65.19zm6.66 5.44c-2-.17-3.25-1.87-4.27-3.37a2.59 2.59 0 01-.63-1.81.64.64 0 01.23-.57.66.66 0 01.6-.15c1.7.4 3.11 2.1 4 3.5a9.81 9.81 0 01.69 1.43.66.66 0 010 .68.67.67 0 01-.61.29zm18 13.12c-1.9-.15-4.37-1.72-4.88-3.63a.66.66 0 01.12-.59.64.64 0 01.55-.26c1.93 0 4.76 1.65 4.93 3.76a.66.66 0 01-.72.72zm146.26-6.3c-.17 1.54-1.39 1.93-2.59 2.57a9.42 9.42 0 01-3.45 1.17.68.68 0 01-.57-.24.65.65 0 01-.13-.61c.58-2.2 4-3.16 5.92-3.62a.67.67 0 01.82.73zm-62.81-23.76a56.86 56.86 0 0010.2 1.43v.85a12.72 12.72 0 01-2.32-.24l-8.05-.61zm-22.9 6.27c1.29 1.95 1.94 2 4.8 2.34 2 .22 4.37.42 6.61.53 2 .09 4.51.51 6.57.56l26.74 2.08a55.33 55.33 0 006.87.49 56 56 0 006.89.59c2.33.18 4.6.55 7.23.55 4.51.42 9.2.92 13.9 1.15 2.1.1 4.63.53 6.86.56s4.77.57 7.1.57c1.75 0 3.05.29 5.17.29-1.34 1.17-2.82 1.64-3.14 2.85 2.26-.05 3.87-1.93 5.05-2.38 1-.39 5.47.39 6.93.38l-4.39 3a103.64 103.64 0 01-16.84 9.13c-10 4.17-27.4 10.31-37.84 10.67-3.07.11-3.44 1.07-5.06 2.65s-2.82 1.34-5.7 1.72c-7.75 1-17.63.88-25.49.78l-10.47-.66A127.91 127.91 0 01114 315c-3.59-1.46-6.79-2.94-10.32-4.51-6.85-3.05-4.19-.94-9.94-5.19-4.26-3.16-9-5.95-13.37-8.89-1.56-1-3-2.67-4.85-1.72.45 1.67 2.53 2.86 3.83 3.88a133.52 133.52 0 0018.81 12c.92.47 1.63.81 2.48 1.23s1.64 1 2.56 1.44a21.3 21.3 0 014.8 2.96c1.35 1.23 3.79 1.43 5.73 2 8 2.24 15.85 5.07 24 6.77l19.46 3.66c2.07.41 4.85.79 5.35 2.64a2.53 2.53 0 00-.57.86c-1.56 0-3.47-.52-5.14-.57-6.33-.2-25.8-3.38-31.4-6-.71-.33-1.52-1.16-1.81-1.24-1.12-.33-1.75.44-8.65-2.27-5.68-2.23-11-4.24-16.45-7a33.46 33.46 0 00-3.9-1.81c-3.9-1.39-1.78-1.77-3.71-2.28.05 2.15 2.42 3.08 4 4 1.71 1 3.59 1.91 5.44 2.84 3.61 1.81 7.46 3.33 11.37 4.89a187.22 187.22 0 0024.41 8.12 104.82 104.82 0 0013.87 2.45 240.21 240.21 0 0030.85 1.74h.5c5.12 0 9.57-.08 14.3-1.47a53.85 53.85 0 017-1c1.42-.2 2.14-.24 3.46-.53l9.65-2.62A145.76 145.76 0 00245.25 318c1.9-.95 3.53-1.76 5.24-2.75 10.2-5.89 20.35-11.78 29.17-19.63a76 76 0 0111.8-8.46c3.17-1.88 7.51-7.43 10-10.57a217.38 217.38 0 0013.48-19.05c3.13-5 6.48-10 8.78-15.47s-.27-2.5 2.12-5.58c1.65-2.12 3.75-8.51 4.81-11.46.37-1 .58-2 .93-3.07 4.83-14.3 6.89-29.14 8.48-44.32a78.74 78.74 0 00.33-15.36c-.11-2.35-.57-5.51-.25-8 .26-2.05.5-2.62.54-3.58v-.54a28.74 28.74 0 00-.33-3c-1.37-9.54-7.42-32.85-11.65-41.42-.54-1.09-.72-1.94-2-2.28 0-6.75-2-7.15-3-9.29a43.48 43.48 0 00-2.63-6.5c-.84-1.68-1.55-3.35-2.5-4.92-2.89-4.84-4.84-8.53-8.09-13.31a145.17 145.17 0 00-11.12-14l-10.7-11.28c-.77-.77-1.23-1-2-1.7a85.7 85.7 0 00-7.79-6.77c-1.38-1-2.75-2-4.24-2.89-5.22-3.18-7-5.43-13.2-8.5-16.77-8.3-33.8-15.47-52.15-20-4.28-1.03-2.38-.7-5.28-1.87-1-.38-1.62.15-3.18.09s-1.72-.49-3-.76l-13.28-1c-2.41-.08-5.3-.19-8.36-.28H161c-1.65.09-3.19.22-4.55.4-4.38.6-8.78.94-13 1.55-4.93.71-16.67 4.57-23.45 5.41-.94.12-2.07 0-2.73.7s.17.38-.79.92c-.55.3-1.08.15-1.55.45-1.65 1 1.39 1.19-3.7 3.72-1.6.79-3.07 1.53-4.75 2.38L91.82 23A125.16 125.16 0 0073.6 33.93c-1.43 1-2.72 1.87-4.17 3s-2.76 2.18-4.15 3.26-2.47 2.18-3.88 3.27L42.8 61.09c-2.31 2.09-1.71-1.4-.29-2.88 1.08-1.13 2.69-2.67 3.08-4.35-1.11.3-1.6 1.17-2.36 1.93L38 61.64a155.8 155.8 0 00-22.47 33.79c-6.65 13.28-15 37.3-15 56.89.68-1 1.53-4.54 1.73-5.71.42-2.52-.59-3.55 2.55-4.28 0 1.41-.28 2.76-.22 3.64.09 1.23.21 2.33 1.36 2.64.32-.66.5-4.61.69-5.88.67-4.58 1.42-9.37 3.17-13.66.39-1 0-.34.6-1.12.36-.49.36.16.68-1a6.94 6.94 0 00-1.43-.29c.29-1.22.81-1.48 1-3 .6-4-.88-1.23 2.26-9.42.8-2.07 1.34-3.8 2.22-5.77s1.61-3.86 2.48-5.8c2.6-5.83 6.19-13 10-18.23.75-1 .9-1.72 2.53-1.75 0 2.32-1.52 5.41-2.28 7.14-1.66 3.8-3.27 7.77-5.67 11.16-2 2.78-2.1 5.88-3.08 9.19-.59 2-6.5 17.25-5.27 18.48s2-3.39 6 .89c1 1.1 1.12 1.75 1.49 3.36 1.59 0 1.66-.49 2.18-1.82.87-2.24.4-5.57 1.14-6.87 1.12-2 .92.66 2.45-1.22.5-.62 1.14-1.71 1.6-2.42a28.14 28.14 0 001.58-2.7 170.87 170.87 0 0116.15-25.21l5.14-6.85c.61-.8 1.13-1.65 1.8-2.48 2.78-3.44 13.25-15.93 16-17.13 4.48-1.93-3.32 8.19-3.55 9.06 2.5-1.68 11.77-10.27 16.3-13.66A220.45 220.45 0 01109.6 44c3.43-1.85 6.78-3.18 10.39-4.74 1.75-.76 3.49-1.48 5.32-2.1 2.12-.72 3.55-1.31 5.77-1.94 3.92-1.14 7.84-2.4 11.92-3.22 6.59-1.31 19.48-3.57 26.41-3.55 4.62 0 5.4-.48 10.33.24 6.26.92 9 .07 17.38 1.74 19.75 3.94 23.57 5.71 39.45 13.06a19.53 19.53 0 012.53 1.17c3.94 2.42 8.2 4.22 12 6.8l11.23 7.59 6 5.43c2.79 2.82 9 8.45 11.2 11.35l6.88 8c3.12 3.93 3.32 3.75 6.53 8.6a148.63 148.63 0 0117.09 35.71c1.26 3.77 2.44 7.81 3.4 11.71.52 2.07.91 3.92 1.32 6.11 1.82 9.73 1.59 18.57 1.59 28.37 0 2.86-.31 4.82-.28 7.42.05 4.56-1.46 19.26-2.89 23.37-.6 1.75-.48 1.31-2 2 .72 3.08-.45 5.9-1.54 8.72l-4.64 11.63c-.87 2-3.95 10.1-5.23 11 0-2.86-1-5.91-1.59-8.68L293 203.71c-2.3-11.49-4.43-23.18-7-34.68-2.25-10.11 0-8.73-12.11-8.72-7.28 0-4-.64-6.62-1.09a16.07 16.07 0 00-2.51-.06H254.2c-2.07 0-3.1.28-4.84.3h-10.29c-2.12 0-3.44.24-5.13.29-3.44.11-7.1 0-10.57 0s-6.49.28-10.27.28c.16-2 3.82-9 3.36-10.52s-1.26.38-3.08.53c0-1.9.45-2.21.57-3.71a72.59 72.59 0 007.34 3.8 39.18 39.18 0 008.85 2.56c21.55 3.51 42.62-8.88 49-29.37a44.25 44.25 0 00-6.95-40.06l-5.49-5.92a43 43 0 00-10.3-6.82c-5.92-3-11.69-4.09-18.74-4.09-8.46 0-14.69 1.72-20.56 5.12l-9.91 7.22-2.7 3c-.47.53-.8 1-1.27 1.58a40.52 40.52 0 00-6.17 11 44.83 44.83 0 00-1.84 24.85c.42 2 1.13 2.58.23 4.34-2.83 5.53-.56 8 1.11 13.15.72 2.23.26 2.81-.71 4.39a94 94 0 01-7.3 9.82l-7.38 9.74h-6.57a7.6 7.6 0 00-6.13-6.7c-1.91-.43-1.18-.08-1.75-1.68a9.19 9.19 0 00-2.19-3.51l-.31-.26c-1.26-1.28-.48-4.08-7.06-9.5-.78-.64-.65-.9-1.68-1.18v2.86a41.73 41.73 0 01-3.21-3.06c-1.45-1.24-2.44-1.32-4.49-1.8.7 3 3.14 4.2 3.14 8-1-.27-.62-.24-1.37-.91-1.22-1.09-2.69-2.29-4.34-1.94a9.76 9.76 0 00.57 3.71c-2.13-1.43-3.16-4-6.56-4.28.67 1.26 1.67 2 2 3.42-.92-.61-2.71-1.89-4-2 .9 1.69 3.25 2.82 3.71 4.56a5.62 5.62 0 00-3.71 0c.4 1.49.84.7 1.71 2a53.52 53.52 0 00-5.42-.57l2.57.86c-2.46.2-5.43.72-6 2.85a16.32 16.32 0 013.14-.86c-.93 1.38-5.2 4.73-6 7.71.67-.44 1.3-1 2-1.43-.25.93-.38.74-1 1.6-.4.57-.64 1-1 1.59a11.44 11.44 0 00-1.47 4c1.47-.78 3.54-2.49 5.13-2.86-.75 1.12-6 5.12-8.27 8.56 1-.28 1.83-1.36 3.14-1.71-.76 1.43-1.83 2.82-2 4.85.83-.55 1.68-1.4 2.57-2a19 19 0 01-2.13 3.87c-1.16 1.9-1.35 2.34-.16 4.12.93-.62 1.93-1.65 2.86-2.28a4.9 4.9 0 00-.51 3.93c.16.74 0 .23.22.64.52-1.07.14-1.55 1-2.75a4 4 0 012.17-1.82c0 3.27-1.4 5.12 1.23 3.53 1-.59.61-.69 1.62-1 0 5.34 1.62-.4 5.14.28 1.42.27.61.47.57 2 2 0 1.79.27 2.57 1.43 3-.71 2.34.81 4.76.71a29.45 29.45 0 005.8-.71c0 4.75-3.27 7.36-4 18a25.34 25.34 0 01-.78 3.79 38.22 38.22 0 01-2.31 6.54c-1.32 2.87-2.27 2.58-3.29 5.55-1.45 4.24-.77 7.73-5.94 14-.94 1.15-1.73 2.4-3.93 2.92.59.8 1.56 1 3.14 1.14-.05 2.26-1.28 2.67.17 7a44.19 44.19 0 002.39 5.88 69.24 69.24 0 006.28 10.56c-4.57 0-11.78-1.65-15.94-2.89-2.51-.75-4.91-1.29-7.22-2.2a12.81 12.81 0 01-3-1.82c-2.61-1.66-8.14-3.93-10.19-.94a11.1 11.1 0 00-1.11 3.45c-.63 2.2-3.87 6.78-5.22 9s-2.53 3.76-2 7.55c1.31 9.74 5.83 4 8.58.72 2.08-2.5 4.43-3.61 6.75-4.95 5-2.89 5-2.78 13.08-.78 5.9 1.46 8.53 3.1 13.93 4.9 1.52.51 5.74 1.69 7 2.75a21.55 21.55 0 00-7 1.31c-10.75 3.58-2.53 1.5-13.47 3.09-1.17.17-2.92.3-3.87.4l-7.66.64c-2.15 0-5.79-2.44-5.71 6.25 0 5-.52 3.86-2.12 6.16-1.47 2.11-1.73 3.94-.28 6.24 2.44 3.88 4.23 9.91 7.71 7.48 2.91-2 2.36-7.08 2.38-10.18a7.25 7.25 0 01.16-1.84c.87-4.2 9.75-4.3 14.38-4.74 4.93-.47 10-1.36 15.44-1.41zm37.32-3.7c-1.92 0-2 .35-2.79-.86h.8a22.22 22.22 0 012.38.24c1.95.16 1.27-.4 2 .9zm-4.5-2.51a89.33 89.33 0 01-9.8-1.49 53.89 53.89 0 00.38-6.33c1.27.09 2.46 0 3.72.05 1.48 0 1.94.29 3.7.29a3 3 0 00.57 1.47c.19 1.16.41 1.8.68 3a17.43 17.43 0 00.75 3zm16.55 2.72c.23.39.31.56.57.93l-8.85-.86c.12-1.38-1-.56 3.14-.57h4.36a2.32 2.32 0 00.78.5zm-2.5-1.92a35.93 35.93 0 01-4.28-.08c-2.22-.26-2.27.26-2.92-1.59-.38-1-.76-1.7-1.19-2.86a25.57 25.57 0 01-1.1-3.18c3.39.79 3.72-.37 4.77 1.8 1.78 3.72 4.89 4.89 4.69 5.89zm-8.92-2.53c.18 1.06.36 1.31.57 2.24-1.33 0-2.46-.28-4.28-.28-.39-1.68-.86-3.69-1.14-5.38a6.2 6.2 0 01-.57-2 19.13 19.13 0 012.53 0c1.88.45 1.4 4.47 2.89 5.42zm12.56 3.67a33.83 33.83 0 005-.17l4.73-.4a13.08 13.08 0 011.14 3.14c-1.62 0-4.34-.5-6-.57-3.47-.17-3.33.27-4.85-2zm11.41-.86c2.08 0 3-.28 4.86-.28.71 1.35.82 3 1.42 4.28-1.48-.13-3.94-.45-5.42-.57-.12-1.4-.67-2-.86-3.43zm-18.54-7.13c1.57 0 12.23.1 13.37 1.46l2.61 4.53a97.16 97.16 0 01-10 .57c-.84 0-4.94-4.41-5.5-5.35a5.88 5.88 0 01-.49-1.21zm-8-6.57h4a30.17 30.17 0 001.43 4.57c-6.04 0-3.75-1-5.46-4.57zm-5.7 0h4.28a29.19 29.19 0 011.14 4c-4 0-3.33-.35-4.51-2.34-.37-.63-.62-1.04-.94-1.66zm-4-6.56h6.28c.31 3.75 3.27 5.18-.54 5.16h-2.88zm-2-.14c.81.5.47.2 1 1.18l2.16 4.1-1.75.28c-.3-1.84-1-3.58-1.39-5.56zm2 7a15.73 15.73 0 012.29-.28 27.36 27.36 0 012 3.71 32 32 0 00-3.58-.28c-.28-1.41-.67-1.76-.7-3.15zm53.62 18.27h-1.11c-.23-.88.06-.17-.29-.83a30.9 30.9 0 00-1.71-5.45h2.29a13.07 13.07 0 00.51 3.2c.32 1.43.86 2.23.28 3.06zm-2.82-1.4a1.9 1.9 0 00.28 1.12l-7.13-.57a21.73 21.73 0 00-.68-2.47c-.09-.26-.45-1.21-.47-1.3-.28-1.32-.55-.52.3-.8 1.87 0 4-.57 6-.57l1.62 4.39a.69.69 0 00.09.2zM214 279v.58a31.57 31.57 0 00-5.13.57 33 33 0 00-2.57-4.36c-.34-.49-.1-.09-.29-.78 2.42 0 3.76.29 6.28.29A13.81 13.81 0 00214 279zm-11.33-5.7c-4.09 0-10.74-.86-12.64-.86a38.44 38.44 0 00-1.42-4.85c1.85 0 2.39.29 4.1.29 2.55 0 3.93.28 6.46.28l2.87 4c.51.71.72.59.63 1.13zm-11.68-7.13h-2.67a6.7 6.7 0 01-.57-1.82l-.9-2.73a67.42 67.42 0 018.89.84c.46.27 2.23 4.08 2.28 4.28-1.44 0-1.75-.3-3.41-.3a26.87 26.87 0 01-3.62-.27zM186 263.5a11 11 0 01.57 2.68l-4-.35a31.12 31.12 0 00-1.43-4.5h4a9.36 9.36 0 01.86 2.17zm-4.2-3.6l-.94-.11c-.86-1.42-1.46-4.74-2.28-6.46a37.45 37.45 0 014 .29c.18 2.1 1.83 4.17 2 6.28zm-2.65-1v.67h-6.56a18.57 18.57 0 00-.86-3.13c-.3-1.15-.61-2.33-.86-3.51.25-.62-.71-.4 2.85-.2 1.34.07 1.77.28 3.43.28l1.9 5.74a.77.77 0 00.09.19zm48.51 20.93a13.39 13.39 0 012.29-.28c1.58 0 2.28 4.9 2.28 6.85a8.65 8.65 0 01-3.43-.29c-.01-2.23-1.08-3.93-1.15-6.24zm1.53-4.38a5.22 5.22 0 00.76 2.67c-2.42 0-3.06 1.1-3.14-2.57zm-7 .1h3.14c0 1.26.28 1.34.28 2.86h-2.28a15.37 15.37 0 00-1.14-2.86zm-8.56-.28c2.79 0 4.55.28 7.13.28.27 1.13.88 2 1.14 3.14-2.09 0-4.2.57-6.56.57a20.07 20.07 0 00-1.67-3.95zm-3.43-6.57h8.28c.35 1.49 1.31 3.75 1.43 5.14h-7.14a7.86 7.86 0 00-1.19-2.51c-.55-.9-.9-1.73-1.38-2.63zm-9.41-.57c5.38 1.26 6.7-1.79 9 2.95.56 1.14 1 1.76 1.52 2.76-1.46 0-2-.31-3.71-.29s-2.5.32-3.37-.62zm-3.14-5.7c1.63 0 2 .29 3.7.29h4.29l2 4.28c-3 0-5.33-.28-8-.28a7.41 7.41 0 00-1.14-2 15 15 0 01-.86-2.27zM184 253.62c2.79.06 6.66.86 9.7.86.47 2 1.25 4.27 1.72 6.27-3.34 0-5.74-.57-9.14-.57-.28-1.2-.74-2.08-1.1-3.17-.22-.66-.38-1.11-.61-1.68s-.38-1.3-.57-1.71zm-14-9.42c1.74 0 3.05.45 4.56.57a37.65 37.65 0 002 6.85c-1.6 0-4.39-.53-6-.57zm6 .86c1.74 0 2.08.28 3.71.28.15 1.84 1.54 4.62 2 6.57a11.42 11.42 0 01-3-.14c-1.13-.35-1-.81-1.29-1.85s-.45-1.44-.73-2.41a22 22 0 00-.69-2.45zm-7.9-1.43c1 1.11.25.73.65 3.55.16 1.16.32 2.93.4 3.87h-.63c-.33-2.53-1.65-4.41-1.65-7.42zM256.84 291c-.1.11.31.07-.23.15zm-2.61-3a.33.33 0 00-.13-.11c-.57-.57-.82-1.72-1.65-4a48 48 0 01-1.68-4.6c2.49 0 4.07-.28 6.27-.28a30.83 30.83 0 002.29 8.19c-.72.62-.76 1-1.64 1.23h-1.81a2.83 2.83 0 01-1.65-.42zm-1.75-.41l-8-.05a22 22 0 01-.86-3.14 28.21 28.21 0 00-.85-3.38v-1.47c2.6 0 4.19-.29 6.56-.29l2.65 7.34c0 .08.14.32.18.4a2.78 2.78 0 00.31.59zm-11.13-7.41c.06 2.54 1.24 4.84 1.43 7.07-3.18 0-5.9-.57-9.14-.57a18.08 18.08 0 00-1.42-7.13h8.84zm-2.9-2.06h-7.09c-.22-.94-.37-.79-.57-1.81l-.28-.76h10c0 1.29.29 1.14.29 2.57zm-11-4h-1c-.11-1.33-.57-2.49-.57-4a7.5 7.5 0 01-.29-1.47c1.7 0 2.45-.25 3.71-.28 0 2-.28 3.4-.28 5.71zm-3.24-4.82c.37 1.49.5 3.3.85 4.82h-3.42l-1.64-5.38h3.38c1.47.13.54-.28.85.61zm-2.33-2h-2.52a5.23 5.23 0 00-.29-1.68 10.39 10.39 0 01-.85-2.89h5.13c0 1.6.54 3.06.57 4.57zm-4.52-2.52c.1 1.16.47 1.32.57 2.52h-8.56l-2.1-4.23h9.52c.07.82 0 .3.18 1s.17.45.39.8zm-4.6-3.19c-1.49 0-1.53-.22-2.82-.29-1.07-.05-2.33 0-3.43 0-.83-1.57-1.43-3.62-2.28-5.1a6.76 6.76 0 01-.28-1.46c2.4.56 6 .29 8.84.29a33.72 33.72 0 013.14 6.27 26.59 26.59 0 00-3.17.29zm-10.24-6.52c.15 1.67 1.86 4.43 2.28 6.24-3.07 0-5.06-.29-8-.29a51.55 51.55 0 00-1.71-6.56l6.81.28zm-2.32-1.76a38.53 38.53 0 01-5.39-.38 13.75 13.75 0 00-.48-1.61 33.06 33.06 0 01-.66-4.57c1.74.15 4.54.43 6.28.57 0 1.79 1.3 4.22 1.71 6zm-7.1-1.24c.14.62 0 .54.29 1-3.06-.25-6.78-.86-10-.86-.91-1.9-1.37-4.66-2.28-6.56a17 17 0 012.38.29 40.48 40.48 0 014.34.4 42.28 42.28 0 004.41.45c.03 1.31.41 4.52.88 5.3zm-11.88-7.89c-.47-.21-.21.06-.67-.38 0-1.87-.86-2.74-.86-5 2.24 0 3.25.3 5.42.29h6l1.14 6.27zm-2.1-1.24v1a34.15 34.15 0 01-3.71-.57 27.18 27.18 0 00-.86-3.53c-.39-.63-.19 0-.28-1 4.72 0 3.52-.72 4.27 2.59zm-6.28-4a26.66 26.66 0 001.14 4.09c-5.1 0-3.79-.53-4.28-3.35a1.75 1.75 0 00-.28-1.21c1.74 0 2.28-.24 3.42.47zM262 287l-.13 2-.84-1.27c.56-.6.23-.34 1-.73zm8.42-1.71v-5.06a21.6 21.6 0 012.73-2.65 3.52 3.52 0 011.55-.28 13.13 13.13 0 00.57 3.78 19 19 0 01-2.36 2.13 7.73 7.73 0 01-2.48 2.09zm6-5.43a28.26 28.26 0 01-.31-2.85 14.61 14.61 0 003.71-.61zm4.94-5.13a35.79 35.79 0 01-5.53.85v-.67a26.33 26.33 0 013.65-3.89h2.06a25.22 25.22 0 00.28 3.34zm.2-5.71c-.22 1 .35.39-.59.58zm1.71 3.42c-.43-.81-.31-.52-.31-1.71a5 5 0 002-.3 4.08 4.08 0 01-1.64 2.02zm2.93-3.44c-1.59 0-1.94.26-3.19.29v-1.71a19.22 19.22 0 012.64-2.79c1.25-1.25 1.43-1.9 3.36-2.35-.01 3.38-.23 3.15-2.81 6.56zm-84.8-21.69l8 .29 2.57 6c-3.35 0-5.6-.29-8.85-.29-.12-1.96-1.45-3.84-1.72-5.97zm-8.85-8.27h5.14a31.49 31.49 0 001.71 6.56h-2.86c-1.44 0-1.43-.3-2.85-.3-.18-2.21-.88-4.28-1.14-6.27zm-13.41-3.71v-5.43l9.13.58 2.33 7.12c-4.14 0-7.25-.28-11.17-.28a14.64 14.64 0 01-.29-1.96zm-2-17.13c.11 1.53.6 2.68.6 4.29a7.83 7.83 0 01-2.58.28c.7-1.25 1.27-3.66 2-4.57zm-2.53 6.28c1.2-.58 1.92 0 3.13-.57v4.57l-4.85.13a32.52 32.52 0 011.69-4.1zm-2.31 5.42h5.44c0 2.45-.18 5.43.29 7.42h-4.28c-.8-1.65-1.29-3.83-2.29-5.31a7.21 7.21 0 01.81-2.08zm-1.62 3.71a15.83 15.83 0 011.36 3.43l-2.57.05a25 25 0 011.18-3.45zm89.82 52.51c-.42-.78-2.39-6.09-1.69-7.13 1.43 0 1.54-.29 3.12-.29v6.47c-.74.62-.4.68-1.43.95zm-3.71-8.58c-2.49.07-4 .31-6.56.31a8.9 8.9 0 00-.57-1.6l-.3-.68c1.57 0 6.27-.44 7.14-.86 0 1.26.29 1.32.29 2.83zm-8.85-2.15a6.75 6.75 0 00.86 2.46c-2.61 0-4.19.28-6.56.28 0-1.43-.26-1.28-.29-2.57h5.88zm-1.54-1.25h-3.6c-2-.18-1.08-1.06-2-3.61-.11-1-.48-1.62-.57-2.68 1.18 0 2-.29 4.85-.29a37.54 37.54 0 002.28 6.57zm-7-4.17a14.12 14.12 0 00.86 4.17h-9.7l.34-5.71 5.54-.29c.64-.47 1.32-.28 2.39-.28a3.11 3.11 0 00.16 1.28c.27 1 .11.53.41.83zm-4.68-3.25a35.46 35.46 0 00-3.88.28 12.21 12.21 0 00-.28-3v-1.54c2.42 0 4.16-.29 6.84-.29a18.24 18.24 0 00.86 4.28c-1.66 0-2.27.29-3.54.29zm-5.59-3.6a14.25 14.25 0 00.28 3.88l-4 .35c0-1.79-.57-2.9-.57-4.63a12.35 12.35 0 003-.28h1c.32.56.1-.44.24.71zm-2.68-1.82h-1.89l-.28-1.6-1.21-5h5.2l.86 6.28c-1 0-2.25-.16-2.68.29zm-3.6-2.18a5.86 5.86 0 00.29 2.18h-5.71c-.13-1.54-2.16-5-2.85-6.28h1.88l5.25-.29.87 3.95c.25.75-.09.18.22.47zm-8.1-5.53c-1.12 0-1.14-.18-1.54-.92-.29-.53-.43-1-.73-1.55a9.2 9.2 0 01-1.33-3.54c3.21.09 5.3-.27 8.28-.27a36.28 36.28 0 011.71 6c-2.56.02-3.91.31-6.44.31zm-6.15-7.7h-7.72c-.44-1.89-1.67-5.21-1.71-7.12 1.72-.05 6.7.35 7.44 1.1.16.17 2.27 5.33 2 6zm-11.45-8.28H192c-.46-1.93-1.87-5.18-2-6.85a7 7 0 013 .29h2.47a39.15 39.15 0 011.63 6.59zm-6.44-8.28c-.81-.6-.4 0-1.13-.4s0 .07-.49-.35l-.37-.37a1.1 1.1 0 00-.11-.12c-.13-2-1.33-3.1-1.72-4.75 2.48 0 3.95-.28 6.57-.28.26 1.12.55 2.06.85 3.14a18.41 18.41 0 01.86 3.42c-1.83 0-2.49-.29-4.46-.29zm-3.87-2.33a16 16 0 01.58 1.81c-3.11 0-5.14-.28-8.28-.28v-4.57c1.41 0 1.24-.25 2.39-.28a12.57 12.57 0 003.6-.29c.6 1.14 1 2.44 1.71 3.61zm-6.56-4.28l-1.14-.22c0-2.67-.77-4.27-1.3-6.59a13.53 13.53 0 003.87-.79 21.75 21.75 0 001.18 3.38 34.7 34.7 0 011.39 3.46 16.31 16.31 0 01-3.13.32c-.9.2-.35-.2-.87.44zm77.62 51.75c1.54 0 2.33-.57 4-.57v3.43l-3.71.28c0-1.61-.25-1.9-.29-3.16zm-1.43-7.13h5.43c0 6 .37 4.86-1.81 5.32a8.87 8.87 0 01-2.47.39c-.05-1.88-1.1-4.14-1.15-5.73zm-10 .28l8.56-.28c0 1.45.72 3.06 1 4.75.15.86.41.94-.3 1.37-.49.31-5.86.73-7 .73-.49-2.1-2.09-5-2.28-6.57zm-7.71-5.7c2.26 0 3.35-.29 5.42-.29a39.34 39.34 0 00.57 4.57h-2.57c-1.39 0-1.33.26-2.56.29-.14-1.69-.86-2.64-.86-4.56zm-9.13-7.42c2.36 0 4-.41 6-.57l1.14 6.84-6.27.29c-.17-2-.81-4.69-.86-6.56zm-8.56-7.14h5.42c.5 5.95 4.6 6-4 6-.02-1.9-1.14-3.95-1.4-6.02zm-12.84-7.42h4.57c1.83 0 2.56-.29 4.56-.29a46.85 46.85 0 001.71 6.28h-8.85zm-11.2-8.54h6.92l2 6.57c-2.27 0-3.7-.58-7.42-.58zm74.58 45.07h-1.17v-4.31c1.33.05 2-.26 3.71-.26v2.1zm-10.56-10.56c-.77 0-3.8.11-4.31 0-1.11-.24-.75-.2-.93-1.35a10.27 10.27 0 01-.21-2.11 5.75 5.75 0 00-.29-1.68c2.17 0 4-.57 6.28-.57l.29 5.43a2.13 2.13 0 01-.83.28zm-7.16-4.31a18.75 18.75 0 01.57 4.31h-4.29c-1.76 0-2.69.26-4 .29-.11-1.33-.46-3.53-.57-4.85 2.89 0 4.64-.29 7.45-.29a2.18 2.18 0 00.83-.29zm-2.26-2c-2.29 0-3.58.29-6 .29v-6.85c2.48-.21 4.92-.57 7.71-.57 0 2.41.39 4.69.57 6.85a14.18 14.18 0 01-2.26.29zm-7.43-4.6v5.16c-2.36 0-3.57.29-6 .29a45.79 45.79 0 00-.89-5.45c-.19-1.12-.9-1.58 4.06-1.69 1.51 0 1.56-.25 2.82-.28zm-4.2-3.09a7.18 7.18 0 01-3.17.28 41 41 0 00-.57-4.51v-.91c3.23 0 5.28-.63 8-.85v5.7c-1.5 0-2.46.29-4.26.29zm-5.16-4.8c0 2 .57 3.34.57 5.37-2 0-3.57.57-6 .57-.46-2-1-3.8-1.42-5.71h1c2.23 0 3.38-.42 5.89-.23zm-8.85-1.87v.68h-5.42c-.4-1.73-1.68-4.87-1.71-6.57h.88a25.64 25.64 0 004.25-.57c.77 1.6 1.16 5.09 2 6.46zm-7.52-7.32l-.19-.18c-.11-1.75-1.14-4.06-1.14-7.23a20.86 20.86 0 004.85-.58l1.21 5.67c.43 1.68 1.38 2.31-4.73 2.32zm-1.61-.6v.89c-1.94 0-7.53.72-8.83 0-1.11-.63-1.73-5-2.59-6.83h2c2.58-.22 5.45-.57 8.25-.57a23 23 0 001.12 6.51zm-11.1-7.39c-1-.34-.16.28-.89-.6 0-2.33-1.42-5-1.42-7.67 2.61 0 7.21-1.14 10.55-1.14l1.43 8.84c-2.06 0-3.13.29-4.84.3-2.05.02-3.23.27-4.88.27zm-2.31-1.17c.07.85 0 .6.28 1.17-2.52 0-6.38.51-7.16-.83l-1.68-6.33c2.17.09 5-.65 7.13-.83a35 35 0 001.38 6.82zm-10.53-7.1c-2.71 0-4.27.28-6.88.28l-2.55-6c-.24-.55-.09-.25-.31-.58v-.54c4.34-.36 2-.57 7.71-.57a35.41 35.41 0 011 3.55 26 26 0 01.98 3.86zm-11.7-8a23.47 23.47 0 01-2.93.85c.89-1.57 1.38-4.71 2-5.7zm89.29 57.07v-4.28c1.66 0 2-.28 3.42-.28.09 3.83 1.71 4.45-3.42 4.56zm-37.39-33.1l1.43 8c-2.77 0-4.66.29-7.13.29 0-1.47-1.93-6.41-1.84-6.92.15-.81.74-.45 3.5-.84a26.11 26.11 0 014-.52zm-17.69-17.12l5.14.28 1.14 7.71a28 28 0 01-4.85.57c-.3-1.28-.41-2.75-.65-4.2-.08-.45-.23-1.51-.38-2.19a8.51 8.51 0 01-.4-2.17zm-13.43-5.7a47.46 47.46 0 009.42-.57c.73 1.53 1.27 3.34 2 4.85a38.89 38.89 0 00-5.16.55 44.18 44.18 0 01-5.11.59c-.63-1.31-.57-4.14-1.14-5.42zm-9.42-.57l8 .28a43.24 43.24 0 001.14 6c-2.26.19-5 .85-7.42.85a20 20 0 00-.89-3.39 17 17 0 01-.86-3.74zm-11.13-8l7.71-1.14a64.57 64.57 0 001.42 7.7 32.65 32.65 0 00-4.2.08c-.86.11-2.79.47-3.79.49 0-2.16-1.07-4.83-1.14-7.13zm94.16 66.49v-1.14h1.29zm2.83-2.85a20.88 20.88 0 00-2.82.28v-4.28a24.89 24.89 0 006-1.14v1.75a38.53 38.53 0 01-3.18 3.39zm4.45-4.85c.45-1.42-.2-.46.72-.94-.5 1.12-.23.55-.75.91zm2.1-2.86a4.34 4.34 0 01-2.23.57v-7.42a38.08 38.08 0 006.28-1.42v2.59a31.1 31.1 0 01-2 2.83c-.68 1-1.3 1.88-2.05 2.85zM281.3 256v7.31a26.24 26.24 0 01-5.71 1.14V257c1-.22 1.67-.44 2.74-.68.45-.1 1-.16 1.43-.28l.67-.2c.52-.21.26-.07.59-.3zm-7.42 5.58v3.16l-3.42.34v-6.9c1.42 0 2-.54 3.42-.57zm-12-7.7c0 1.71-.29 2.82-.29 4.87-2.27 0-4.3.52-6.28.57l-.57-7.14h1.29c2.35 0 3.67-.57 5.85-.57zm-6-1.87s.1.14.14.18zm-1-1.26l-.44-.14c-.08-2.27-.85-4.41-.85-7a7.53 7.53 0 002.23-.33c1.2-.27 1.53-.17 2-.66 3.32.6 4-2.37 4 2.57s.53 4.76-1.36 5.06a32.7 32.7 0 01-5.63.49zm-1.86-.71c0 1.27-.07.72-.29 1-1.46 0-6.32.18-7.13.57l.15-6a42.41 42.41 0 016.41-1.43c0 1.1.49 5.31.86 5.85zm-8.85-5.71a35.48 35.48 0 01-8.27 1c-.28-1.19-.42-2.27-.65-3.63-.2-1.16-.54-2.65-.78-3.93.28-.75.71-.62 1.65-.77l7.2-1.08c0 3.49.85 7 .85 8.41zm-12.12-8.13c-.83.06-6.57.94-7 1.14-.56-2.42-1.12-4.91-1.71-7.42l1.16-.28a40.35 40.35 0 006.26-.86l2 7.42zm-7.71-6.69l.14.14zm-1.27-1c0-2.53-.87-4.49-.87-7.42.86.41 1.34.19 2.11.4l.23.07.18.08c1.9 0 3 .28 5.14.28l.28 5.43c-1 .47-5.57.77-7.12 1.14zm-.3-8.56l-.86-.8c-.42-1-.54-4.12-.85-5.48h7.13a7.15 7.15 0 00.76 2.67c.34.62.37.54.65 1s.29.7.59 1.3v1.83c-2.98.05-4.72-.47-7.39-.47zm-2.57-1.66a1.8 1.8 0 00.29 1.09l-5.71-.29a31.91 31.91 0 00-1.59-4.18c-.52-1.41-.58-.7.1-1 2.36 0 3.8-.28 6.34-.28.12 1.4.57 3.1.57 4.62zm-10-6.27c.38.66.2 0 .29 1.08-2.53 0-5.3.41-6.82.26a6.17 6.17 0 01-1-.17l-1.06-.5c-.34-1.18-.58-2.36-.83-3.61s-.77-2.71-.88-4l7.42-.57a53.46 53.46 0 002.85 7.48zm-10.27.1l.33 1c-3.1 0-5.16-.27-8.32-.27l-1.43-7.7h8c.05 2.17 1.37 4.84 1.43 7zm-8.51-8.44h-.91l-.28-.62a19.7 19.7 0 00-.86-5.09c2-.16 4.09-.57 6.28-.57.36 1.55 1.61 3.38 2.28 6.28zm-2.62-1.47v1.47c-2.59.06-5.31 1.14-7.83 1.14a22.66 22.66 0 00.7-6.52c1.07-.06 2.09 0 3.15 0 1.45 0 1.56-.3 3.13-.3.31 1.34.52 2.92.85 4.24zM255.88 252zm23.71 2.7a17.48 17.48 0 00-4 .9c-.09-1.09-.2-.66-.28-1.85v-4.72a46.11 46.11 0 005.71-1.14l.28 6.28c-.63.31-.32.1-.87.26-.84.26-.12-.12-.84.27zm-5.71-1.52v2.7a16.77 16.77 0 01-3.42.86v-6.85c1.3 0 2.2-.47 3.42-.57zm-17.27-11.56a11.07 11.07 0 01-3.56.57c0-1.61-.29-1.74-.29-3.28-.57-.88-.38-2.59-.85-3.57h4.29c1.76 0 2.2-.3 4-.3.1 1.2 1.24 4.45 1.14 5.15-.17 1.21-.73.77-2.15 1a23.41 23.41 0 01-2.56.45zm-5.56-3.28a36.14 36.14 0 00.86 4.42 52 52 0 00-6.28 1.42c0-1.35-.86-5.06-.86-8.56h2.13c.72-.47 2.38-.28 3.58-.28a16.77 16.77 0 01.57 3zm-5.86-4.14h-.7c0-2.39-.29-4.17-.29-6.16v-1.24c2.27 0 3.29-.57 5.43-.57 0 3 .57 5 .57 7.7h-2.58c-1.07.06-1.31.29-2.43.29zm-2.41-7c0 2.74.28 4.45.28 7.29l-8.84 1.43a70.51 70.51 0 01-2-7.42c1.58 0 9.49-1 10.15-1.43zm-1.55-1.27a38.19 38.19 0 00-4.65.66c-5.86.84-4.93 1.64-4.93-4.37 1.62 0 2.41-.25 3.54-.29a29.73 29.73 0 006.73-1.14l.63 4.85c-.77.17-.55.14-1.32.29zm-7.47-5.42a4.27 4.27 0 01-2.11.28v-1.54c-.2-3-1.71-2.48-1.71-5.59 13.47 0 9.62-2.92 11.69 6-2.22 0-3.75.86-7.87.86zm49 33.39v-6.28c1.8-.15 3.57-.86 5.42-.86.07.81.33 1.76.46 2.68.19 1.32-.07 2.05.4 3a50.61 50.61 0 01-6.28 1.43zm-12.27-5.43v-6.56h2.85a34.71 34.71 0 00.57 6c-1.3 0-2.21.47-3.42.57zm4.28-6.56l5.7-.28a44.87 44.87 0 01.58 4.85c-1.83.42-3.88.71-5.71 1.14-.14-1.65-.57-3.95-.57-5.71zm-13.41-7.42c.81.33.57-.19.57 1.43 0-.06-.08-.24-.1-.19-.22.6-.04-.26-.5-1.23zm-10.28-8.56c1.46-.34 5.27-.66 6.28-1.14.17 2.06 1.78 6.66 2.28 8.84l-7.13.29c-1.08 0-.91-1.2-1.12-3.45a40.16 40.16 0 01-.31-4.54zm-7.76-5.41a19.83 19.83 0 003.08-.7 15.19 15.19 0 013.14-.74l.12.08v5.63c-2.35 0-3.36.57-5.71.57zm-34.47-16c3.22 0 6.13-.57 9.42-.57a46.59 46.59 0 011.14 8.27c-1.71 0-6.1.08-7.14.57-1.58-3.29-2.5-6.21-3.42-8.27zm-11.7-7.42c3.24 0 6.28-.81 8.27-.86.05 2.29 1.38 4.56 1.43 6.85a12.64 12.64 0 01-3.71.28 29.63 29.63 0 00-3.71.29 22.07 22.07 0 00-1.63-4.93zm-9.42-5.71a18.72 18.72 0 013.71-.28c.84 0 1 .81 1.8 2.19a11.45 11.45 0 011.34 2.66 40.54 40.54 0 00-5.42.57 40 40 0 00-1.43-5.14zm2.57-7a31.06 31.06 0 011.14 5.31c-1.9 0-3.1.28-4.57.28-.13-1.62-.81-1.6-1.14-2.87zm-6 3.6l1.13 2c-1.51 0-2.81.29-4.75.29a14.23 14.23 0 013.62-2.28zm-3.45 3.71l5.42-.29c.12 1.37 1.06 3.57 1.43 5.14-1.7 0-4.15.17-6 .36a18.7 18.7 0 00-.26-2.67c-.14-1.75.13-1.1-.6-2.54zm109.55 63.06v-1.14a3.54 3.54 0 001.13-.41zm2.51-3.14a4.05 4.05 0 00-1.42.24c-1 .19-1.37 1.14-1.91-5.37.85-.41.7-.2 1.71-.36a22.82 22.82 0 013.71-.79 12.36 12.36 0 01.42 1.87c.09 1.19-1.76 3.56-2.51 4.41zm-3.26-6.85c-.29.34-.1.14-.64.29v-.64a53.96 53.96 0 01-1.43-5.07c1-.5 1.89-.78 2.95-1.32s1.75-1 2.76-1.53c.19 2.35 1.23 5.06 1.42 7.42-1.72.14-3.18.82-5.06.85zm-2.36-1.21a6 6 0 00.57 1.78c-2 0-3.51.82-5.42.86a45.31 45.31 0 00-.57-4.85c.7-.16.9-.23 1.71-.36a23.28 23.28 0 002.57-1.07 33.74 33.74 0 011.14 3.64zm-5.13-3.42c-.5-.31-.42-.1-.57-.57l-1.69-7.95a25.11 25.11 0 01-.6-2.83l6.86-2.24-.66 5.88c-.33 2.41.17 3.68.37 6.07-1.89 1-2.91.74-3.71 1.64zm-2.29-1.43c.3.8.26.33.29 1.5l-5.71.28-.28-1.7c-.22-2.57-.86-5.12-.86-8a23.43 23.43 0 014.57-1.43c.28.59 1.93 8.33 2 9.35zm-7.13-.49a6.2 6.2 0 00.29 2.27h-2.57v-8.06c.24-1-.07-.94 1.42-1.07zM261.9 227c0 1.24.21 5.27-.29 6.06-1.23-.32-.86-.69-1.71-3.71-.38-1.33-.69-3.11-1.14-4.35.66-.74-.57-.18 1.33-.61a8.12 8.12 0 011.81-.17zm-5.07-3.64c-.74.63-4.63.59-5.78 1.14v-6a52 52 0 005.14-1.43c0 2.06.92 5.11.64 6.3zm-8.56-5.36c-1.65.05-3.48 1-5.21 1.14a48.74 48.74 0 01-1.14-5.21 10.56 10.56 0 00-.29-1.35c1.64-.38 3.57-2.16 5.44-3.13.67-.34 1.31-.51 2-.87.25 3 .58 5.46.58 8.85-.46.22-.75.29-1.36.57zm-9.13-6a30.77 30.77 0 00-4.52.12 16.28 16.28 0 01-4.68 0c.18-1.85 1.6-4.63 1.71-9.29 1.81-.16 4-.58 6-.58.13 1.53 2.05 6.62 2.28 9.42zm-10.63-.41v.69h-6.32c-1.54-.07-1.18.38-1.59-2.69l-.94-5.91c2 0 3.19-.19 5.13-.29a44.11 44.11 0 005.15-.56c0 2.29-.36 7-1.43 8.72zm-10.56-9c-3.27 0-6.35.56-9.42.56a29.42 29.42 0 01-1.67-7.13c3.22 0 5.53-.86 8.81-.86a15.92 15.92 0 001.31 3.54 15.62 15.62 0 011.02 3.85zm-11.29-8a.94.94 0 00-.42 0 30 30 0 01-1.13-4.8 40.35 40.35 0 007.13-.86c.88 1.65 1.71 3.23 2.57 4.85-2.85 0-5.11.79-8.15.85zm-1.84 0c-1.24 1-7.4 1.18-8.84 1.18l-2.57-4.85c2 0 3-.29 5.17-.29a23.76 23.76 0 015.1-.57 25.2 25.2 0 001.14 4.53zm-7.95-5.38c-1.66 0-2.19.28-4 .28a42.42 42.42 0 00-1.14-5.58l3.49-2.34c1.3-.32 4 .22 5.64.22l2.28 6.85c-2 0-4.36.57-6.24.57zM287 236.5a43.74 43.74 0 01.5-9.21c.22-1.34.13-1.17 1.29-1.56.83-.27 1.43-.47 2.2-.65l2 10c-1.12.59-2.29 1.14-3.42 1.71-1.85.94-2.57 1.72-2.57-.28zm-16.55-6.28v-5.71a.34.34 0 01.09.19 23.91 23.91 0 011.05 5.23c-.47 0-.89 0-1.14.29zm17.69-5.71l.29-7.13h1.14a36.22 36.22 0 001.14 6.28 14.61 14.61 0 00-2.56.85zm-16.84-2.57c1.88-.43 3.58-1 5.43-1.42 0 3.89.81 5.56.85 7.42a45.24 45.24 0 00-4.56 1.42 35.72 35.72 0 00-1.72-7.42zm15.13 3.14c-2.48.58-5 1.73-7.42 2.29a29 29 0 01-.86-7.42 21.44 21.44 0 004.4-1 23 23 0 014.45-1 52.89 52.89 0 01-.57 7.13zm-28.82-8.27c1.29 0 1.13-.29 2.56-.29h1.72v6.28l-3.42.34c-.18-2.2-.85-3.85-.85-6.33zm20.54 1.71c.42-1.78.74-3.69 1.14-5.42 1.35-.11 4.92-1.72 6-2.28a15.65 15.65 0 011.42 5.7c-2.73.06-5.85 1.78-8.56 2zm-1.42.57c-2.88.24-6.28 2.67-6.28.57 0-6-.49-2 7.13-5.71a26.65 26.65 0 00-.85 5.14zm10-8.85l1.13-.32a31.94 31.94 0 011.16 6h-.86a22.43 22.43 0 00-1.44-5.68zm-30.25-3.42a27.37 27.37 0 005.43-1.14v9.42l-4.57.28c-.25-2.88-.87-5.32-.87-8.56zm23.4 4.57c.2-2.38 1.15-3.46 1.15-8.28a17.35 17.35 0 012.56-.28l1.43 6.56a23.64 23.64 0 01-5.15 2zm-29.39-3.14a16 16 0 014.57-.86c0 3.09.63 5.57.85 8.28-1.23.59-3.56.81-4.85 1.42a63.76 63.76 0 00-.58-8.84zm20 6.28v-10l9.13-1.14c0 2-.75 7.38-1.49 8.5-.39.6-.46.53-1.6 1-1.75.67-4.08 1.66-6 1.66zm14.55-12h1.43c.36 4.39 2.47 6.05-.29 6.28-.07-1.88-.92-4.31-1.18-6.27zm-45.97-.53a46.13 46.13 0 008-.86c.3 1.32 1.51 3.66 1.71 6A31.54 31.54 0 00245 209c-1.14.68-2.42 1.81-3.62 2.09-.36-1.52-.76-3-1.14-4.57a44 44 0 01-1.14-4.56zm31.39 1.14v-6.56a33.37 33.37 0 018.27-1.43c.18 2.08.86 4.46.86 6.85-.99 0-8.68.89-9.13 1.11zm-15.7 2.86a19.67 19.67 0 00-4.56.86c-.49-5.83-4.55-5.69 2.71-6.49 1.52-.17 1.17 0 1.54 3.38.12 1.08.24 1.39.31 2.25zm.57-6c2.15-.05 4.42-1.09 6.57-1.14 0 6.69.5 5.41-2.55 6a12.66 12.66 0 01-3.16.55c-.29-1.25-.47-4.63-.86-5.41zm28.82-3.71c1.69.14 1.1 1 2 4.85h-1.42a37 37 0 00-.58-4.88zm-4-.85c1.43 0 1.28.25 2.57.28 0 2.05.57 3.66.57 5.71l-2.28.28a27.12 27.12 0 00-.86-6.27zm-63.07-.58l9.38-1.46c.89-.15 2.25-.46 3.18-.53.59 2.54.29 5.87.29 8.56-2.68.06-6.34.85-10.56.85zm53.37.29v-11.44a17.73 17.73 0 004-1.12c3-1.16 1.68-1.21 3.17 6.46a38.38 38.38 0 01.79 4.64 27.82 27.82 0 00-8 1.43zm-39.38-2.57a19.38 19.38 0 003.42-.57c.07 3 2 6.23 2.57 8.85a31.29 31.29 0 00-5.42.57c0-1.67-.19-8-.57-8.85zm4.85-.85a19.69 19.69 0 003.92-.65c1.24-.24 2.78-.48 4.07-.78.05 2.14 1.39 6.09 2.14 8.18s-.13 1.36-2.55 1.68a33.09 33.09 0 01-5 .41c-.33-1.38-1-2.8-1.47-4.24a19.5 19.5 0 01-1.1-4.63zm47.65-2.57h.29c0 2.13.86 3.58.86 5.7h-.58a36 36 0 01-.56-5.73zm-38.24.85a53.93 53.93 0 006.57-1.42c.05 2.18 1.71 6.59 1.71 10.27l-5.71.86a11.3 11.3 0 00-.74-2.12c-.33-.86-.47-1.56-.72-2.42a25.8 25.8 0 01-1.11-5.17zm8-1.71a24.66 24.66 0 003.06-.64c1-.2 2.16-.54 3.21-.79.26 3.09 2.29 6 2.29 10.56-2.38 0-4.59 1.09-6.85 1.14 0-3.78-1.65-7.86-1.71-10.27zm-39.39.57l13.7-2a13.47 13.47 0 011.71 4.57l-6.4 1a62.27 62.27 0 01-6.72 1c-.4-.75-.73-1.54-1.16-2.27zm47.09-2c0-.52.43-.45.86-.57v3.43c0-.06-.08-.24-.1-.19l-.39-1a4.38 4.38 0 01-.37-1.63zm-26.25-1.14l7.7-1.42a28.14 28.14 0 001.14 4.56 58.53 58.53 0 01-8.27 1.43c.01-1.87-.56-2.59-.56-4.6zm-5.71.86c1.51 0 2.66-.57 4.28-.57 0 1.72.57 2.84.57 4.56a9.2 9.2 0 01-3.14.58 13.61 13.61 0 00-1.71-4.57zm14.84-2.28c0-.6 2-.8 2.74-1 1.24-.28 2.17-.49 3.25-.75a20.88 20.88 0 011.43 4.86c-2 0-4.28 1-6.28 1.14a35.41 35.41 0 01-1.14-4.28zm7.42-2c2.24-.52 4.37-1.2 6.56-1.71a41.86 41.86 0 011.14 4.85 32.37 32.37 0 01-6.28 1.42zm-41.1-.29c4.16 0 10.1-1 12.85-2.28 1.16 2.21 3.34 5 3.42 6-3.52 0-10.1 1.64-13.7 1.72a9.86 9.86 0 00-1.26-2.74c-.31-.51-.48-.74-.75-1.25s-.33-.94-.56-1.44zm-7.7-.28c2.16 0 3.57.28 6 .28.51 1 2.68 5 2.86 5.71-2.47 0-4.3.57-6.85.57-.54-2.17-1.72-4.44-2-6.59zm75.34-.29a15.75 15.75 0 013.71-1.42c0 2.62.15 4.52.28 7.13.12 2.36.57 4.46.57 7.13-3-.7-2.11 1.1-3.3-5.25zM259.33 180a8.75 8.75 0 002.57-.58v5.43a6.36 6.36 0 00-1.43.28c-.21-.92-.88-4.54-1.14-5.13zm11.13 2.28v-5.71l5.13-2a29.81 29.81 0 00.86 5.71 29.27 29.27 0 01-5.99 2zM199.12 178c.34 1.47.73.87.85 2.28-1.24 0-1.56-.28-3.14-.28a17.84 17.84 0 012.29-2zm25.39 1.14c2-.17 4.47-1.67 6.57-1.71l1 3.31a14.54 14.54 0 01.74 3.82c-1.62 0-2.7.57-4.57.57-.66-1-1.34-1.85-2-2.85-.33-.5-.54-.87-.87-1.41-.17-.28-.29-.42-.44-.7a8.35 8.35 0 01-.4-1zm8-2.28c1.86 0 4.06-.82 6-.86 1.44 2.16 2.2 4.54 3.42 6.85-2.42.2-5.15 1.21-7.7 1.43 0-2.66-1.42-5.1-1.72-7.42zm-32.53 0c2.67-.72-2-1.09 6.56-.51l1.4 4.23-6.25-.3a13.86 13.86 0 00-1.71-3.42zm8-.86c5.82 0 8.86-1.14 12.27-1.14a14.25 14.25 0 012 3.71c-5.27 1.23-6.33 2-12.84 2zm32.25-.28a32.55 32.55 0 006-.86l2.38 4.47c.34.7.47 1.2.76 1.81a37.17 37.17 0 01-6.28 1.42c-.11-1.31-1.43-3.73-2.09-5l-.39-.76c-.17-.4-.29-.86-.37-1.05zm-56.79-.58l-.29.29zm64.49-.57c2.45 0 5.61-.94 7.71-1.42.3 1.31 1.77 3.33 2 6-1.93.45-4.85 1.55-6.85 1.71l-2.2-4.65c-.37-.72-.41-1.03-.68-1.64zm-19.69-.85a4.34 4.34 0 012 2.28c-.66.32-2.33.74-3.24 1-1.1.36-2.3.72-3.32 1-.35-.66-.55-1.17-1-1.88-.59-.94-1.21-1.35-.1-1.75a46.2 46.2 0 015.66-.65zm-44.51 1.14l-.29.28zm.28-.29l-.28.29zm22-2.85l.19 3.15a10.38 10.38 0 00-3.33-.3c.52-.84 2.13-2.57 3.13-2.85zm-21.68 2.57l-.29.28zm92.46-.29l2.85-1.43c.29 1.26 1.44 2.8 1.71 6-2.16.18-3.17 2.22-3.7.3-.36-1.34-.34-3.78-.86-4.87zm-92.18 0l-.28.29zm45.66-.57a36.13 36.13 0 016.56-.85c.3 1.27.57.91.86 2a32.74 32.74 0 00-5.71 1.15c-.27-.41-.48-.77-.81-1.19a12 12 0 01-.9-1.1zm-21.69 1.14c-1.54 0-1.14-.37-1.14-4.56 0-.93.25-.22.57-1.43 4.5 0 4-.55 6.74 1.26 1.54 1 3.43 2.16 4.39 3.59a49.25 49.25 0 00-5 .7 35.65 35.65 0 01-5.55.44zm61.93.29v-6.28c1.6-.13 2.76-1 4.56-1.14a25.41 25.41 0 00.29 5.71c-1.59.35-3.36 1.58-4.9 1.71zM257 172.58c1.91-.16 3-1.11 4.86-1.15V178a14.73 14.73 0 00-2.86.85 18.71 18.71 0 00-1.43-4.56c-.2-.5-.38-1.29-.57-1.71zm-18.83-.29c1.79-.42 3.66-.73 5.42-1.14a26.66 26.66 0 011.71 2.57c-2.23 0-3.83.57-6.27.57a7.55 7.55 0 00-.86-2zm7.13-1.43c1.16-.26 2.27-.45 3.54-.74 3.58-.83 4-1.59 5.88 1.89-1.14 0-5.69 1.23-8 1.42a2.58 2.58 0 00-.69-1.3c-.06-.09-.35-.47-.37-.49zm31.11.57c0-5.19-.3-4.85 2.85-4.85 0 1.54.57 2.33.57 4 0 .2-3.42 2.83-3.42.85zm-149.82-.85l-.28.28zm127.85-1.71c2.5-.06 4.46-1.14 7.42-1.14 0 2.74.05 2-2.61 2.81-1.09.34-1.94.62-3.1.89a12.85 12.85 0 01-1.71-2.56zM184.56 174a18.58 18.58 0 012.5-2.92c1.5-1.5 1.09-1.93 3.78-1.93zm51.37-5.7c3.85 0 4.49-1.39 6.56 1.71-1.62.13-3.4.82-5.14.85zm-10 0h8.28c.31 1.16 1.11 1.69 1.42 2.85a25.94 25.94 0 00-3 .41c-4.1.6-4.34 1.2-6.69-3.26zm-10.27.28H220c1.89 0 2.46-.29 4.28-.29.38 1.41 1.85 2.65 2.57 4-1.93.16-4.29.86-6.28.86-.54-2-4-3.36-4.85-4.57zm27.11-.57h8.56v.29c-2.48 0-4.66 1.14-7.14 1.14-.38 0-1.19-1.12-1.41-1.44zm27.69-.81v-.62h1.42zm-141-10.6l-.29.28zm.28-.29l-.28.29zm75.62-7.7c0 6.9 1.82 8.44-1.62 11.22-1.26 1-5.74.48-7.51.48.28-1.2 2-3.52 2.66-4.77 2.75-4.95 5.62-11.16 5.62-17.49.24.17 3.78 4 4 4.28a21 21 0 00-1.94 2.62 8.09 8.09 0 00-1.2 3.66zm-2.85-27.11c2.08-1.11 3.05-3.08 4.85-4.28a18.45 18.45 0 003 9.25l1.83 2.45a34.7 34.7 0 01-4 5.42 14.94 14.94 0 01-2.82-3.47c-.58-1.23.28-.6-.18-2.39-.37-1.41-.61-.68-1.57-.42-.3-1.31-1.78-3.42-2.67-6.46a39.61 39.61 0 01.07-23.83c1.94-5.86 6.39-12.89 11-16.71 12.7-10.64 29.18-13.34 44.92-4.56a23.84 23.84 0 013 1.86 39.5 39.5 0 019.26 9.3c9.34 12.89 9.6 31.5-.7 45.29-11.5 15.45-34.06 19.88-49.5 10.58a46.43 46.43 0 01-5.45-3.68 25.68 25.68 0 01-4.76-4.66l4.78-4.92.93.62c2.36-2 13.31-16.12 14.92-17.16-.68 1.45-5.33 7.57-6.68 9.45s-2.11 2.87-3.38 4.6a38.46 38.46 0 00-3.15 4.56c2.09 1.11 4.47 2.61 7.42 2.85-1 1.55-2.82 2.44-3.71 4.11a48.77 48.77 0 004.49-2.76c1.47-.93 2.87-1.83 4.33-2.79l8.66-5.4a12.18 12.18 0 01-3.55 3.93c-1 .74-3.55 2.19-4.22 2.91 4 0 8.61-2.92 10.77-4.92A19.75 19.75 0 00237.34 99a19.47 19.47 0 00-25.34 4 16.3 16.3 0 00-1.72 2.27 18.41 18.41 0 00-2.4 5.59c-1.07 4.16.26 1.91-2.28 5.72-.69 1.07-2.79 3.89-3.06 4.92zM42.45 67c.16-1.94 3.2-5.14 4.32-6.52 3.31-4.1 7.52-7.74 11-11.25 2.42-2.43 12.63-10.62 15.1-12.32l13.29-9c2.37-1.45 2.21-1.34 4-1.2.44-1.9 1.38-2.15 2.85-1.42-.56 2.11-11.4 8.84-13 9.87-2.28 1.51-4.44 3.17-6.54 4.88-1.15.93-2 1.61-3.13 2.57L55.05 56.47C52.47 58.53 45 66.4 42.45 67zM9.53 142.9a19.39 19.39 0 01.76-4.85c.41-1.63.42-3.29 2.31-3.79a.63.63 0 01.58.11.66.66 0 01.26.54c0 2.08-.68 8-3.06 8.64a.68.68 0 01-.85-.65zm-1.71 5.93c.15-1.79 1.79-4.44 3.75-4.61a.69.69 0 01.52.18.63.63 0 01.21.51 4.17 4.17 0 01-1.23 3 3.13 3.13 0 01-2.52 1.63.66.66 0 01-.73-.73z"
          />
          <path
            id="logo_svg__path4"
            className="logo_svg__cls-1"
            d="M46.44 212h1.43c1.29 0 3.15 3.42 3.59 4.69 1 2.84 1.82 10.79-.1 13.92-1 1.59-2.39 3.46-4.63 3.65v-16.88c0-2.24-.29-3.48-.29-5.42zm0-23.12c3.16.07 4.28 3.88 4.28 6.85 0 1.34-1.15 4.26-1.6 5.53-.6 1.68-1.4 3.6-2.68 4.46 0-2.89-.37-15.22 0-16.84zm-4.85 34.25v4.85c0 7.15-2.46 11.7 4 11.7a10.39 10.39 0 008.16-4.4c5.43-7.22 4.41-17.42-.16-23.86-.92-1.29-2.27-2.11-3.15-3.42 2.82-4.2 4.85-6.37 4.85-12.84 0-9.75-8.89-13.19-12.27-11.43-1.82 1-1.72 3.8-1.71 6.58 0 11.21.28 21.54.28 32.82z"
          />
          <path
            id="logo_svg__path6"
            className="logo_svg__cls-1"
            d="M85.54 142.61v-7.7a16.34 16.34 0 01.28-2c7.89 1.84 8.13 29 3.81 36.91-1.07 2-1.4 1.78-3.23 2.76 0-5.35-.27-10.08-.28-15.14 0-1.65-.26-1.94-.3-3.4zm-5.71-11.7c0 4.51.58 7.64.57 12 0 5.51-.24 27.1.3 31.09.59 4.36 1.52 3.72 6.27 3.72a5.11 5.11 0 002.73-1.25c.51-.39.59-.51 1.1-.91 7.69-6 6.44-18.76 6.44-28.66a24.41 24.41 0 00-3.94-12.33c-5-7.87-13.47-8-13.47-3.65z"
          />
          <path
            id="logo_svg__path8"
            className="logo_svg__cls-1"
            d="M41.59 152v23.11c0 2 .92 3.14 2.86 3.14 2.59 0 2-2.64 2-5.13 0-5.72-.27-12.29.78-17.78a10.15 10.15 0 01.32-1.39l.41-1c0-.05.08-.14.1-.18l.11-.18 1.65 8.33c.86 3.42 3.81 17.4 8.09 17.48 2.89.06 3.33-3.07 1.22-6.24a15.41 15.41 0 01-1.63-2.93c-2-4.79-5.34-16.73-5.34-21.78 0-4.75 2-6.24 4.09-10.46.88-1.74 1.78-3 2.68-4.75 1.44-2.74-.4-3.91-2.77-3.91s-7.66 13.76-8.85 15.13l.69-11.57c.26-1.19.42-.8.18-1.85-.64-2.73-5.52-4.08-5.46 2 .06 6.51-1.14 13.07-1.14 20z"
          />
          <path
            id="logo_svg__path10"
            className="logo_svg__cls-1"
            d="M69.27 204.25l1.14 9.75c0 1.68.29 3 .29 5.13a21.56 21.56 0 00.29 5.14c-2.12 0-2.87-.54-4.57-.57.35-.73 1.2-8.09 1.47-9.66zM59 237.35c0 .89 1.3 2 2.85 2 4 0 2.86-9 4.28-12 1.7.14 3.7.81 5.43.85l1.2 9.93c.72 1.45 5.07 3.24 5.07-1.65l-1.21-9.06c-.1-.77-.38-1.86-.58-2.85l-1-12.68c-.61-5.43-1.78-13.72-1.75-18.8 0-4.35-1.74-4-5.15-4-2.26 0-2.12 9.09-2.52 11.75-1.82 12.33-2.81 18.12-5.4 30.27-.4 1.89-1.21 4.27-1.21 6.2z"
          />
          <path
            id="logo_svg__path12"
            className="logo_svg__cls-1"
            d="M63.28 131.2c0 2.05.73 2.57 3.14 2.57 0 4.8-.14 21.1.49 25.76l.65 12.47c-1.73-.41-4.28-.73-4.28 2.28 0 3.83 12.58 3.77 13.41.57a3.43 3.43 0 00-1.19-2.8 3.64 3.64 0 00-3.09-.63c0-6.43-.44-8.73-.56-13.7 0-1.37-.23-1.3-.29-2.56l-.62-17.08c-.09-.85-.87-4.42.18-5 1.32-.77 3.58.9 3.58-3 0-3-3.35-2.53-5.88-2.17-2.26.32-5.54 1-5.54 3.31z"
          />
          <path
            id="logo_svg__path14"
            className="logo_svg__cls-1"
            d="M81.83 233.93c0 2.91-.51 6 2.85 6 2 0 1.39-1 5.48-.33 1.26.21 3.61 1.57 5-.94a2.53 2.53 0 00-.39-2.79c-1.25-1.5-4.58-1.07-7.2-1.07a25 25 0 01-.71-2.44c.11-7.42.42-14.74.42-22.11v-13.43c.06-1.75 1.56-7.12-2-7.12-3.15 0-3.3 7-3.09 8.8a52.94 52.94 0 01.29 11.5z"
          />
          <path
            id="logo_svg__path16"
            className="logo_svg__cls-1"
            d="M99.24 233.36c0 3.46-.64 6.56 2.85 6.56 2 0 1.38-1 5.47-.33.92.16 3.72 1.56 5-1a2.52 2.52 0 00-.38-2.76c-1.26-1.51-4.58-1.08-7.21-1.08-.22-1-.44-1-.7-2.15-.34-1.53.42-18.46.42-21v-15.06c0-1.66 1.5-6.84-2-6.84-4.33 0-3 11.66-2.64 14.34z"
          />
          <path
            id="logo_svg__path18"
            className="logo_svg__cls-1"
            d="M100.66 136.62c0 6.25.74 9.27 4 14.85 3.48 6 4.87 10.76 3.27 17.52-1.35 5.73-3.38 3.87-6.4 3.87-.62.93-1.22 1.44-.85 2.54 2 5.86 12.55 2 12.55-10.24 0-16.15-10.31-18.11-7.49-30a8.08 8.08 0 011.21-2.79l2.28.33c1.73.21 3.27-3.2.58-4.9-3-1.89-5.71-.28-7.31 2.4a17.19 17.19 0 00-1.83 6.45z"
          />
          <path
            id="logo_svg__path20"
            className="logo_svg__cls-1"
            d="M219.09 140h-.28l.23.34z"
          />
          <path
            id="logo_svg__path22"
            className="logo_svg__cls-1"
            d="M202.54 121.5h-.29l.24.33z"
          />
          <path
            id="logo_svg__path24"
            className="logo_svg__cls-1"
            d="M133.48 147.75v-.29l-.33.24z"
          />
          <path
            id="logo_svg__path26"
            className="logo_svg__cls-1"
            d="M126.63 181.14l.16.61z"
          />
        </g>
      </g>
    </g>
  </svg>